<?xml version="1.0" encoding="UTF-8" standalone="no"?>
<svg
   xmlns:dc="http://purl.org/dc/elements/1.1/"
   xmlns:cc="http://creativecommons.org/ns#"
   xmlns:rdf="http://www.w3.org/1999/02/22-rdf-syntax-ns#"
   xmlns:svg="http://www.w3.org/2000/svg"
   xmlns="http://www.w3.org/2000/svg"
   xmlns:xlink="http://www.w3.org/1999/xlink"
   viewBox="0 0 87.220596 87.220596"
   id="svg43"
   height="87.220596"
   width="87.220596"
   version="1.1">
  <metadata
     id="metadata49">
    <rdf:RDF>
      <cc:Work
         rdf:about="">
        <dc:format>image/svg+xml</dc:format>
        <dc:type
           rdf:resource="http://purl.org/dc/dcmitype/StillImage" />
        <dc:title></dc:title>
      </cc:Work>
    </rdf:RDF>
  </metadata>
  <defs
     id="defs47" />
  <g
     transform="translate(-240.9413,-262.3898)"
     id="Layer1000">
    <path
       id="path16"
       style="fill:#ececed;fill-rule:evenodd"
       d="m 284.5515,262.3898 a 43.6103,43.6103 0 0 1 43.6104,43.6104 43.6103,43.6103 0 1 1 -43.6104,-43.6104 z" />
    <path
       id="path18"
       style="fill:#ffffff;fill-rule:evenodd"
       d="m 284.5515,268.5104 a 37.4897,37.4897 0 0 1 37.4898,37.4897 37.4897,37.4897 0 1 1 -37.4898,-37.4897 z" />
    <defs
       id="defs28">
      <linearGradient
         id="grad1">
        <stop
           id="stop20"
           stop-opacity="1.0000"
           stop-color="#102a83"
           offset="201392128.0000%" />
        <stop
           id="stop22"
           stop-opacity="1.0000"
           stop-color="#009ee0"
           offset="201392193.0000%" />
        <stop
           id="stop24"
           stop-opacity="1.0000"
           stop-color="#102a83"
           offset="100.0000%" />
      </linearGradient>
      <linearGradient
         gradientUnits="userSpaceOnUse"
         gradientTransform="scale(0.83143264,1.2027433)"
         y2="271.66861"
         x2="318.24069"
         y1="233.9032"
         x1="318.24069"
         id="grad2"
         xlink:href="#grad1" />
    </defs>
    <path
       id="path30"
       style="fill:url(#grad2)"
       d="m 264.5957,281.3255 h 7.164 14.3278 v 7.164 h -14.3278 v 12.0413 h 17.3764 v -5.1823 c 3.7882,0 6.859,3.8214 6.859,8.5354 0,4.7141 -3.0708,8.5354 -6.859,8.5354 v -4.7245 h -17.3764 v 11.8888 h 14.3278 v 7.164 h -21.4918 v -5.0301 -2.1339 -11.8888 -7.164 -12.0413 z" />
    <defs
       id="defs38">
      <linearGradient
         id="grad3">
        <stop
           id="stop32"
           stop-opacity="1.0000"
           stop-color="#e30016"
           offset="0%" />
        <stop
           id="stop34"
           stop-opacity="1.0000"
           stop-color="#b70814"
           offset="100%" />
      </linearGradient>
      <linearGradient
         gradientTransform="scale(0.66114895,1.5125185)"
         gradientUnits="userSpaceOnUse"
         y2="216.29369"
         x2="439.16821"
         y1="185.63193"
         x1="439.16821"
         id="grad4"
         xlink:href="#grad3" />
    </defs>
    <path
       id="path40"
       style="fill:url(#grad4)"
       d="m 290.3556,280.7717 c 11.4437,1.5275 20.272,11.3263 20.272,23.1882 0,11.8619 -8.8283,21.6607 -20.272,23.1883 v -7.1017 c 7.5546,-1.459 13.2607,-8.1059 13.2607,-16.0866 0,-7.9807 -5.7061,-14.6276 -13.2607,-16.0866 z" />
  </g>
</svg>
